<svg xmlns="http://www.w3.org/2000/svg" class="editor-view__logo-preview" data-v-04588dbe="" data-v-0a059b40="" width="318.6201171875" height="54" viewBox="0 0 318.6201171875 54"><svg id="mark" viewBox="0 0 100 100" width="54" height="54" x="0" y="0" data-v-04588dbe="" style="fill: rgb(0, 0, 0);"><rect x="0" y="0" width="100%" height="100%" fill="none" data-v-04588dbe=""></rect><g data-v-04588dbe=""><g xmlns="http://www.w3.org/2000/svg"><path d="M44.258,97.516c-0.052,0-0.134,0.009-0.146-0.007h-0.003h-0.003l0,0c-0.18-0.018-0.36-0.066-0.527-0.149l0,0   c-0.006-0.003-0.009-0.006-0.015-0.009l0,0h-0.003l-22.98-11.488c-0.274-0.138-0.503-0.354-0.659-0.623L4.604,58.435   c-0.177-0.314-0.238-0.668-0.189-1.003l3.828-26.803c0.042-0.287,0.162-0.559,0.348-0.781L27.733,6.882   c0.034-0.045,0.073-0.085,0.113-0.125l0,0l0.003-0.003c0,0,0,0,0.003-0.003c0,0-0.003,0.003,0.006-0.006l0,0   c0.003,0,0.003-0.003,0.003-0.003s0,0,0.003,0c0.049-0.049,0.101-0.091,0.156-0.131c0.003-0.003,0.003-0.003,0.003-0.003   s0.003,0,0.003-0.003c0,0,0,0,0.003,0c0,0,0,0,0.003-0.003c0,0,0,0,0.003-0.003c0,0,0,0,0.003,0c0,0,0-0.003,0.003-0.003l0,0   c0.162-0.113,0.345-0.198,0.543-0.244l0,0c0.003,0,0.003,0,0.006,0h0.003c0.003-0.003,0.003-0.003,0.003-0.003s0.003,0,0.006,0l0,0   c0.04-0.009,0.079-0.015,0.122-0.021l26.802-3.831c0.244-0.034,0.488-0.009,0.714,0.064l22.975,7.661   c0.345,0.113,0.652,0.351,0.851,0.686c0.006,0.009,0.013,0.016,0.016,0.024l15.316,26.802c0.167,0.293,0.234,0.634,0.191,0.97   l-3.83,30.636l0,0c0,0.003,0,0.003,0,0.003c0,0.003,0,0.003,0,0.003v0.003c-0.003,0.004-0.003,0.007-0.003,0.007v0.003   c0,0,0,0,0,0.003l0,0c0,0.003,0,0.003,0,0.006l0,0c-0.034,0.229-0.116,0.442-0.238,0.632l0,0c-0.006,0.006-0.009,0.012-0.012,0.015   c0,0,0,0,0,0.003c0,0-0.004,0-0.004,0.003l0,0c-0.003,0.004-0.003,0.004-0.003,0.007h-0.003c0,0.003,0,0.003,0,0.003   c0,0.003-0.003,0.003-0.003,0.003v0.003H91.49c0,0.003-0.003,0.006-0.003,0.009l0,0c0,0-0.003,0-0.003,0.004l0,0   c-0.003,0-0.003,0.003-0.003,0.003s-0.007,0.006-0.01,0.012l0,0c0,0.003,0,0.003-0.003,0.003v0.003   c-0.003,0.004-0.006,0.007-0.009,0.01l0,0c0,0.003-0.007,0.006-0.003,0.006c-0.016,0.021-0.034,0.043-0.049,0.064L72.261,93.124   c-0.247,0.295-0.595,0.49-0.979,0.546L44.483,97.5c-0.019,0-0.037,0.003-0.055,0.006h-0.003c0,0,0,0-0.003,0h-0.003h-0.003h-0.003   c-0.003,0.003-0.003,0.003-0.003,0.003s-0.003,0-0.006,0l0,0C44.355,97.513,44.307,97.516,44.258,97.516z M45.819,66.349v27.806   l24.429-3.492l17.741-21.294L70.821,55.632L45.819,66.349z M22.399,83.278l20.297,10.15V66.05L21.225,48.159L8.001,58.081   L22.399,83.278z M72.472,52.954l16.533,13.23l3.422-27.352L78.102,13.763l-12.907,6.45L72.472,52.954z M23.226,45.759   l21.297,17.748L69.26,52.905l-7.146-32.149l-24.624-3.52L23.226,45.759z M11.271,31.507l-3.23,22.643l12.004-9.01l14.651-29.3   l-5.654-5.654L11.271,31.507z M37.332,14.059l25.81,3.69l11.511-5.755l-19.05-6.353L32.25,8.978L37.332,14.059z"></path></g></g></svg><svg id="name" viewBox="0 0 248.6201171875 44.3154296875" width="248.6201171875" height="44.3154296875" x="70" y="4.839996337890625" data-v-04588dbe="" style="fill: rgb(0, 0, 0);"><rect x="0" y="0" width="100%" height="100%" fill="none" data-v-04588dbe=""></rect><g data-v-04588dbe=""><path xmlns="http://www.w3.org/2000/svg" d="M18.33 25.92L18.33 25.92Q18.33 24.01 16.98 22.99Q15.63 21.97 12.13 20.83Q8.63 19.70 6.58 18.60L6.58 18.60Q1.01 15.59 1.01 10.49L1.01 10.49Q1.01 7.84 2.50 5.76Q4.00 3.68 6.79 2.52Q9.59 1.35 13.07 1.35L13.07 1.35Q16.58 1.35 19.32 2.62Q22.06 3.89 23.57 6.20Q25.09 8.51 25.09 11.46L25.09 11.46L18.35 11.46Q18.35 9.21 16.94 7.96Q15.52 6.72 12.96 6.72L12.96 6.72Q10.49 6.72 9.12 7.76Q7.75 8.80 7.75 10.51L7.75 10.51Q7.75 12.11 9.35 13.18Q10.96 14.26 14.08 15.21L14.08 15.21Q19.83 16.94 22.46 19.50Q25.09 22.06 25.09 25.88L25.09 25.88Q25.09 30.12 21.88 32.53Q18.67 34.95 13.23 34.95L13.23 34.95Q9.46 34.95 6.36 33.57Q3.26 32.19 1.63 29.78Q0 27.38 0 24.21L0 24.21L6.76 24.21Q6.76 29.63 13.23 29.63L13.23 29.63Q15.63 29.63 16.98 28.65Q18.33 27.67 18.33 25.92ZM55.75 34.50L49.50 24.75L47.17 27.09L47.17 34.50L40.68 34.50L40.68 0L47.17 0L47.17 19.11L48.43 17.50L54.65 10.20L62.44 10.20L53.66 20.33L63.21 34.50L55.75 34.50ZM85.89 34.50L79.33 34.50Q78.88 33.62 78.68 32.32L78.68 32.32Q76.32 34.95 72.55 34.95L72.55 34.95Q68.98 34.95 66.63 32.88Q64.28 30.82 64.28 27.67L64.28 27.67Q64.28 23.81 67.15 21.74Q70.01 19.68 75.42 19.65L75.42 19.65L78.41 19.65L78.41 18.26Q78.41 16.58 77.55 15.57Q76.68 14.55 74.82 14.55L74.82 14.55Q73.18 14.55 72.25 15.34Q71.31 16.13 71.31 17.50L71.31 17.50L64.82 17.50Q64.82 15.39 66.13 13.59Q67.43 11.79 69.81 10.77Q72.19 9.75 75.15 9.75L75.15 9.75Q79.65 9.75 82.29 12.01Q84.92 14.26 84.92 18.35L84.92 18.35L84.92 28.88Q84.95 32.34 85.89 34.12L85.89 34.12L85.89 34.50ZM73.96 29.99L73.96 29.99Q75.40 29.99 76.61 29.35Q77.83 28.71 78.41 27.63L78.41 27.63L78.41 23.45L75.99 23.45Q71.11 23.45 70.80 26.82L70.80 26.82L70.77 27.20Q70.77 28.41 71.63 29.20Q72.48 29.99 73.96 29.99ZM88.97 22.44L88.97 22.17Q88.97 16.58 91.63 13.16Q94.29 9.75 98.81 9.75L98.81 9.75Q102.80 9.75 105.03 12.49L105.03 12.49L105.30 10.20L111.18 10.20L111.18 33.69Q111.18 36.88 109.73 39.24Q108.28 41.60 105.66 42.83Q103.03 44.07 99.50 44.07L99.50 44.07Q96.83 44.07 94.29 43.00Q91.75 41.93 90.45 40.25L90.45 40.25L93.33 36.30Q95.75 39.01 99.21 39.01L99.21 39.01Q101.79 39.01 103.23 37.63Q104.67 36.25 104.67 33.71L104.67 33.71L104.67 32.41Q102.42 34.95 98.76 34.95L98.76 34.95Q94.38 34.95 91.67 31.52Q88.97 28.10 88.97 22.44L88.97 22.44ZM95.46 22.64L95.46 22.64Q95.46 25.94 96.78 27.82Q98.11 29.69 100.42 29.69L100.42 29.69Q103.39 29.69 104.67 27.47L104.67 27.47L104.67 17.25Q103.37 15.03 100.47 15.03L100.47 15.03Q98.13 15.03 96.80 16.94Q95.46 18.84 95.46 22.64ZM127.35 34.95L127.35 34.95Q122.01 34.95 118.65 31.67Q115.29 28.39 115.29 22.93L115.29 22.93L115.29 22.30Q115.29 18.64 116.71 15.76Q118.12 12.87 120.72 11.31Q123.31 9.75 126.63 9.75L126.63 9.75Q131.62 9.75 134.48 12.89Q137.35 16.04 137.35 21.81L137.35 21.81L137.35 24.46L121.87 24.46Q122.19 26.84 123.77 28.28Q125.35 29.72 127.78 29.72L127.78 29.72Q131.53 29.72 133.64 27.00L133.64 27.00L136.83 30.57Q135.37 32.64 132.88 33.79Q130.39 34.95 127.35 34.95ZM126.61 15.00L126.61 15.00Q124.68 15.00 123.48 16.31Q122.28 17.61 121.94 20.04L121.94 20.04L130.97 20.04L130.97 19.52Q130.92 17.36 129.80 16.18Q128.68 15.00 126.61 15.00ZM145.30 10.20L149.81 25.31L154.31 10.20L161.27 10.20L151.50 38.27L150.96 39.55Q148.78 44.32 143.77 44.32L143.77 44.32Q142.36 44.32 140.90 43.89L140.90 43.89L140.90 38.97L141.89 38.99Q143.73 38.99 144.64 38.43Q145.55 37.87 146.06 36.57L146.06 36.57L146.83 34.57L138.31 10.20L145.30 10.20ZM184.13 34.50L177.58 34.50Q177.13 33.62 176.92 32.32L176.92 32.32Q174.57 34.95 170.79 34.95L170.79 34.95Q167.22 34.95 164.87 32.88Q162.53 30.82 162.53 27.67L162.53 27.67Q162.53 23.81 165.39 21.74Q168.25 19.68 173.67 19.65L173.67 19.65L176.66 19.65L176.66 18.26Q176.66 16.58 175.79 15.57Q174.93 14.55 173.06 14.55L173.06 14.55Q171.42 14.55 170.49 15.34Q169.56 16.13 169.56 17.50L169.56 17.50L163.07 17.50Q163.07 15.39 164.37 13.59Q165.67 11.79 168.05 10.77Q170.43 9.75 173.40 9.75L173.40 9.75Q177.89 9.75 180.53 12.01Q183.17 14.26 183.17 18.35L183.17 18.35L183.17 28.88Q183.19 32.34 184.13 34.12L184.13 34.12L184.13 34.50ZM172.21 29.99L172.21 29.99Q173.65 29.99 174.86 29.35Q176.07 28.71 176.66 27.63L176.66 27.63L176.66 23.45L174.23 23.45Q169.36 23.45 169.04 26.82L169.04 26.82L169.02 27.20Q169.02 28.41 169.87 29.20Q170.73 29.99 172.21 29.99ZM188.16 10.20L194.24 10.20L194.44 12.92Q197.03 9.75 201.43 9.75L201.43 9.75Q206.12 9.75 207.88 13.45L207.88 13.45Q210.44 9.75 215.18 9.75L215.18 9.75Q219.13 9.75 221.06 12.05Q222.99 14.35 222.99 18.98L222.99 18.98L222.99 34.50L216.48 34.50L216.48 19.00Q216.48 16.94 215.67 15.98Q214.86 15.03 212.82 15.03L212.82 15.03Q209.90 15.03 208.77 17.81L208.77 17.81L208.80 34.50L202.31 34.50L202.31 19.02Q202.31 16.91 201.47 15.97Q200.64 15.03 198.64 15.03L198.64 15.03Q195.88 15.03 194.65 17.32L194.65 17.32L194.65 34.50L188.16 34.50L188.16 10.20ZM248.62 34.50L242.06 34.50Q241.61 33.62 241.41 32.32L241.41 32.32Q239.05 34.95 235.28 34.95L235.28 34.95Q231.71 34.95 229.36 32.88Q227.01 30.82 227.01 27.67L227.01 27.67Q227.01 23.81 229.88 21.74Q232.74 19.68 238.15 19.65L238.15 19.65L241.14 19.65L241.14 18.26Q241.14 16.58 240.28 15.57Q239.41 14.55 237.55 14.55L237.55 14.55Q235.91 14.55 234.98 15.34Q234.04 16.13 234.04 17.50L234.04 17.50L227.55 17.50Q227.55 15.39 228.85 13.59Q230.16 11.79 232.54 10.77Q234.92 9.75 237.88 9.75L237.88 9.75Q242.38 9.75 245.02 12.01Q247.65 14.26 247.65 18.35L247.65 18.35L247.65 28.88Q247.68 32.34 248.62 34.12L248.62 34.12L248.62 34.50ZM236.69 29.99L236.69 29.99Q238.13 29.99 239.34 29.35Q240.56 28.71 241.14 27.63L241.14 27.63L241.14 23.45L238.71 23.45Q233.84 23.45 233.53 26.82L233.53 26.82L233.50 27.20Q233.50 28.41 234.36 29.20Q235.21 29.99 236.69 29.99Z"></path></g></svg><svg id="slogan" viewBox="0 0 0 0" width="0" height="NaN" x="70" y="53.160003662109375" data-v-04588dbe="" style="fill: rgb(0, 0, 0);"><rect x="0" y="0" width="100%" height="100%" fill="none" data-v-04588dbe=""></rect><g data-v-04588dbe=""><path xmlns="http://www.w3.org/2000/svg" d=""></path></g></svg></svg>